<?xml version="1.0" encoding="UTF-8"?>
<svg id="Layer_1" data-name="Layer 1" xmlns="http://www.w3.org/2000/svg" viewBox="0 0 980 184.13">
  <defs>
    <style>
      .cls-1 {
        fill: #1ba373;
      }

      .cls-1, .cls-2 {
        stroke-width: 0px;
      }

      .cls-2 {
        fill: #065272;
      }
    </style>
  </defs>
  <path class="cls-2" d="m121.67,0v184.13h-47.45v-65.18h-26.6v65.18H0V0h47.63v67.19h26.6V0h47.45Z"/>
  <path class="cls-2" d="m304.27,0l-50.32,49.57h-30.97v134.56h-47.45V49.57h-38.4V0h167.14Z"/>
  <path class="cls-2" d="m322.24,3.21v135.87h54.64v45.05h-102.08V50.66L322.24,3.21Z"/>
  <g>
    <path class="cls-1" d="m613.7,0l-26.12,184h-73.24c-6.71-28.27-12.63-60.43-17.76-96.49-2.34,15.46-7.79,47.62-16.36,96.49h-72.82L381.12,0h56.99l6.2,64.2,5.99,62.07c2.17-32.12,7.57-74.21,16.22-126.27h60.92c.81,5.38,2.94,25.61,6.4,60.69l6.48,70.01c3.34-44.54,8.8-88.11,16.37-130.7h57Z"/>
    <path class="cls-1" d="m640.95,0h104.33v36.82h-45.66v34.89h45.66v35h-45.66v40.46h45.66v36.82h-104.33V0Z"/>
    <path class="cls-1" d="m838.88,0v184h-58.67V0h58.67Z"/>
    <path class="cls-1" d="m980,0v36.82l-49.98,110.35h49.98v36.82h-114.25v-26.71l51.17-120.47h-46.41V0h109.49Z"/>
  </g>
</svg>