<svg id="visual" viewBox="0 0 900 300" width="900" height="300" xmlns="http://www.w3.org/2000/svg" xmlns:xlink="http://www.w3.org/1999/xlink" version="1.1"><rect x="0" y="0" width="900" height="300" fill="#F8F8F8"></rect><path d="M0 186L18.8 175.2C37.7 164.3 75.3 142.7 112.8 132.5C150.3 122.3 187.7 123.7 225.2 129C262.7 134.3 300.3 143.7 337.8 150.7C375.3 157.7 412.7 162.3 450.2 165.8C487.7 169.3 525.3 171.7 562.8 174C600.3 176.3 637.7 178.7 675.2 176.3C712.7 174 750.3 167 787.8 170C825.3 173 862.7 186 881.3 192.5L900 199L900 301L881.3 301C862.7 301 825.3 301 787.8 301C750.3 301 712.7 301 675.2 301C637.7 301 600.3 301 562.8 301C525.3 301 487.7 301 450.2 301C412.7 301 375.3 301 337.8 301C300.3 301 262.7 301 225.2 301C187.7 301 150.3 301 112.8 301C75.3 301 37.7 301 18.8 301L0 301Z" fill="#f8f8f8"></path><path d="M0 209L18.8 212.3C37.7 215.7 75.3 222.3 112.8 221.7C150.3 221 187.7 213 225.2 210.5C262.7 208 300.3 211 337.8 206.3C375.3 201.7 412.7 189.3 450.2 181.8C487.7 174.3 525.3 171.7 562.8 179.3C600.3 187 637.7 205 675.2 208.8C712.7 212.7 750.3 202.3 787.8 198.2C825.3 194 862.7 196 881.3 197L900 198L900 301L881.3 301C862.7 301 825.3 301 787.8 301C750.3 301 712.7 301 675.2 301C637.7 301 600.3 301 562.8 301C525.3 301 487.7 301 450.2 301C412.7 301 375.3 301 337.8 301C300.3 301 262.7 301 225.2 301C187.7 301 150.3 301 112.8 301C75.3 301 37.7 301 18.8 301L0 301Z" fill="#c0ccd5"></path><path d="M0 232L18.8 225.8C37.7 219.7 75.3 207.3 112.8 201.2C150.3 195 187.7 195 225.2 201C262.7 207 300.3 219 337.8 223.5C375.3 228 412.7 225 450.2 226.8C487.7 228.7 525.3 235.3 562.8 230.5C600.3 225.7 637.7 209.3 675.2 210.2C712.7 211 750.3 229 787.8 232.7C825.3 236.3 862.7 225.7 881.3 220.3L900 215L900 301L881.3 301C862.7 301 825.3 301 787.8 301C750.3 301 712.7 301 675.2 301C637.7 301 600.3 301 562.8 301C525.3 301 487.7 301 450.2 301C412.7 301 375.3 301 337.8 301C300.3 301 262.7 301 225.2 301C187.7 301 150.3 301 112.8 301C75.3 301 37.7 301 18.8 301L0 301Z" fill="#89a1b3"></path><path d="M0 215L18.8 223.3C37.7 231.7 75.3 248.3 112.8 254.8C150.3 261.3 187.7 257.7 225.2 254.3C262.7 251 300.3 248 337.8 245C375.3 242 412.7 239 450.2 238.8C487.7 238.7 525.3 241.3 562.8 243C600.3 244.7 637.7 245.3 675.2 246.7C712.7 248 750.3 250 787.8 252.3C825.3 254.7 862.7 257.3 881.3 258.7L900 260L900 301L881.3 301C862.7 301 825.3 301 787.8 301C750.3 301 712.7 301 675.2 301C637.7 301 600.3 301 562.8 301C525.3 301 487.7 301 450.2 301C412.7 301 375.3 301 337.8 301C300.3 301 262.7 301 225.2 301C187.7 301 150.3 301 112.8 301C75.3 301 37.7 301 18.8 301L0 301Z" fill="#527892"></path><path d="M0 256L18.8 255.2C37.7 254.3 75.3 252.7 112.8 255.5C150.3 258.3 187.7 265.7 225.2 265.8C262.7 266 300.3 259 337.8 259C375.3 259 412.7 266 450.2 270.7C487.7 275.3 525.3 277.7 562.8 278.2C600.3 278.7 637.7 277.3 675.2 273C712.7 268.7 750.3 261.3 787.8 260C825.3 258.7 862.7 263.3 881.3 265.7L900 268L900 301L881.3 301C862.7 301 825.3 301 787.8 301C750.3 301 712.7 301 675.2 301C637.7 301 600.3 301 562.8 301C525.3 301 487.7 301 450.2 301C412.7 301 375.3 301 337.8 301C300.3 301 262.7 301 225.2 301C187.7 301 150.3 301 112.8 301C75.3 301 37.7 301 18.8 301L0 301Z" fill="#065272"></path></svg>