<?xml version="1.0" encoding="utf-8"?>
<!-- Generator: Adobe Illustrator 28.0.0, SVG Export Plug-In . SVG Version: 6.00 Build 0)  -->
<svg version="1.1" id="visual" xmlns="http://www.w3.org/2000/svg" xmlns:xlink="http://www.w3.org/1999/xlink" x="0px" y="0px"
	 viewBox="0 0 675 900" style="enable-background:new 0 0 675 900;" xml:space="preserve">
<style type="text/css">
	.st0{fill:#1BA373;}
	.st1{fill:#43AD81;}
	.st2{fill:#5EB68F;}
	.st3{fill:#76C09D;}
	.st4{fill:#8DC9AC;}
	.st5{fill:#A3D3BA;}
	.st6{fill:#B8DCCA;}
	.st7{fill:#CEE5D9;}
	.st8{fill:#E3EFE8;}
	.st9{fill:#F8F8F8;}
</style>
<path class="st0" d="M0,0v310.9l135-63l135,36l135,63l135-9l135-72V0"/>
<path class="st1" d="M0,372l135-81l135,63l135,45l135-18l135-45v-74l-135,72l-135,9l-135-63l-135-36L0,307V372z"/>
<path class="st2" d="M0,414l135-72l135,63l135,45l135-27l135-45v-47l-135,45l-135,18l-135-45l-135-63L0,367V414z"/>
<path class="st3" d="M0,459l135-63l135,45l135,72l135-45l135-45v-47l-135,45l-135,27l-135-45l-135-63L0,412V459z"/>
<path class="st4" d="M0,553.4L135,496l135,51.7l135,40.2l135-28.7L675,519v-96l-135,45l-135,45l-135-72l-135-45L0,459V553.4z"/>
<path class="st5" d="M0,629.3l135.2-0.3l134.8-5.5l135,48.9l141.6-9.7L675,606.3V519l-135,40.2l-135,28.7l-135-40.2L135,496L0,553.4
	V629.3z"/>
<path class="st6" d="M0,731.1h135L270,748l135-5.6l135-16.9h135V606.2l-126.8,42.2c-5.5,1.8-11.2,2.9-16.9,3.1l-113.7,4.7
	c-8.4,0.3-16.8-0.5-25-2.5L270,623.1l-118.7-24.7c-10.7-2.2-21.9-2-32.5,0.6L0,628.7V731.1z"/>
<path class="st7" d="M0,775l135-27l135,27h135l135-9h135v-56H563.2c-15.4,0-30.8,1.5-45.9,4.5l-95,19c-11.5,2.3-23.1,3.8-34.8,4.6
	l-94.9,6.3c-15,1-30,0-44.7-2.9l-99.4-19.9c-8.9-1.8-18-2.7-27.2-2.7H0V775z"/>
<path class="st8" d="M405,829"/>
<path class="st8" d="M675,899V762H554.1c-9.4,0-18.8,0.3-28.2,0.9l-114.3,7.6c-4.4,0.3-8.8,0.4-13.2,0.4H284.7
	c-9.8,0-19.5-1-29.1-2.9L174.9,752c-26.4-5.3-53.5-5.3-79.9,0L0,771v130"/>
<path class="st9" d="M0,901h135h135h135h135h135v-65l-98.7-19.7c-24.1-4.8-48.7-5.6-73-2.4l-61.3,8.2c-24.6,3.3-49.5,4.1-74.3,2.5
	l-82.4-5.5c-10.2-0.7-20.4-2-30.5-4l-58.5-11.7c-40.2-8-81.8-5.5-120.8,7.5L0,836V901z"/>
</svg>
