<?xml version="1.0" encoding="UTF-8"?>
<svg id="Layer_1" data-name="Layer 1" xmlns="http://www.w3.org/2000/svg" viewBox="0 0 1005.25 433.22">
  <defs>
    <style>
      .cls-1 {
        fill: #1ba373;
      }

      .cls-1, .cls-2 {
        stroke-width: 0px;
      }

      .cls-2 {
        fill: #065272;
      }
    </style>
  </defs>
  <path class="cls-2" d="m650.25,0v256.13h-66v-90.67h-37v90.67h-66.25V0h66.25v93.47h37V0h66Z"/>
  <path class="cls-2" d="m904.25,0l-70,68.95h-43.08v187.18h-66V68.95h-53.42V0h232.5Z"/>
  <path class="cls-2" d="m929.25,4.47v189h76v62.67h-142V70.47L929.25,4.47Z"/>
  <g>
    <path class="cls-1" d="m685.2,275.47l-22.29,157h-62.5c-5.73-24.12-10.77-51.57-15.16-82.33-2,13.19-6.65,40.63-13.96,82.33h-62.14l-22.41-157h48.63l5.29,54.78,5.11,52.96c1.85-27.41,6.46-63.32,13.84-107.74h51.98c.69,4.59,2.51,21.85,5.46,51.78l5.53,59.74c2.85-38,7.5-75.18,13.97-111.52h48.63Z"/>
    <path class="cls-1" d="m708.46,275.47h89.02v31.42h-38.96v29.77h38.96v29.87h-38.96v34.52h38.96v31.42h-89.02v-157Z"/>
    <path class="cls-1" d="m877.34,275.47v157h-50.06v-157h50.06Z"/>
    <path class="cls-1" d="m997.75,275.47v31.42l-42.65,94.16h42.65v31.42h-97.48v-22.79l43.66-102.79h-39.6v-31.42h93.42Z"/>
  </g>
  <g>
    <polygon class="cls-1" points="432.75 59.15 432.75 432.97 344.75 345.47 344.75 146.89 344.75 146.72 432.54 58.94 432.75 59.15"/>
    <polygon class="cls-1" points="221.87 88.34 221.65 88.13 87.58 88.13 .25 .47 432.75 .47 344.87 88.24 216.17 216.8 155.08 155.8 221.87 88.34"/>
    <path class="cls-2" d="m208.08,345.47h136.67l88,87.5h-224.5C93.37,432.97.4,340.09.25,225.24V.47l87.33,87.66v136.84c0,66.6,53.9,120.5,120.5,120.5Z"/>
  </g>
</svg>