<svg id="visual" viewBox="0 0 900 900" width="900" height="900" xmlns="http://www.w3.org/2000/svg" xmlns:xlink="http://www.w3.org/1999/xlink" version="1.1"><rect x="0" y="0" width="900" height="900" fill="#065272"></rect><path d="M0 747L150 727L300 744L450 651L600 684L750 673L900 662L900 0L750 0L600 0L450 0L300 0L150 0L0 0Z" fill="#065272"></path><path d="M0 609L150 555L300 588L450 614L600 634L750 636L900 602L900 0L750 0L600 0L450 0L300 0L150 0L0 0Z" fill="#005e7a"></path><path d="M0 505L150 560L300 542L450 474L600 474L750 508L900 500L900 0L750 0L600 0L450 0L300 0L150 0L0 0Z" fill="#006a81"></path><path d="M0 472L150 477L300 408L450 404L600 401L750 469L900 450L900 0L750 0L600 0L450 0L300 0L150 0L0 0Z" fill="#007685"></path><path d="M0 317L150 325L300 386L450 317L600 336L750 366L900 316L900 0L750 0L600 0L450 0L300 0L150 0L0 0Z" fill="#008288"></path><path d="M0 276L150 250L300 248L450 261L600 231L750 299L900 234L900 0L750 0L600 0L450 0L300 0L150 0L0 0Z" fill="#008e86"></path><path d="M0 163L150 208L300 189L450 176L600 200L750 215L900 218L900 0L750 0L600 0L450 0L300 0L150 0L0 0Z" fill="#00997f"></path><path d="M0 92L150 72L300 116L450 124L600 119L750 105L900 118L900 0L750 0L600 0L450 0L300 0L150 0L0 0Z" fill="#1ba373"></path></svg>